<svg id="Layer_1" data-name="Layer 1" xmlns="http://www.w3.org/2000/svg" xmlns:xlink="http://www.w3.org/1999/xlink" viewBox="0 0 174.24 52.56"><defs><style>.cls-1{fill:none;clip-rule:evenodd;}.cls-2{font-size:9.76px;font-family:Verdana-Bold, Verdana;font-weight:700;letter-spacing:-0.01em;}.cls-132,.cls-14,.cls-2{fill:#221f20;}.cls-3{letter-spacing:0.01em;}.cls-4{letter-spacing:-0.01em;}.cls-5{letter-spacing:-0.02em;}.cls-6{letter-spacing:-0.01em;}.cls-7{letter-spacing:0em;}.cls-8{letter-spacing:-0.01em;}.cls-9{letter-spacing:-0.01em;}.cls-10{letter-spacing:-0.01em;}.cls-11{letter-spacing:-0.01em;}.cls-12{letter-spacing:-0.01em;}.cls-13{letter-spacing:0em;}.cls-133,.cls-15{fill:#0568a1;}.cls-100,.cls-101,.cls-102,.cls-103,.cls-104,.cls-105,.cls-106,.cls-107,.cls-108,.cls-109,.cls-110,.cls-111,.cls-112,.cls-113,.cls-114,.cls-115,.cls-116,.cls-117,.cls-118,.cls-119,.cls-120,.cls-121,.cls-122,.cls-123,.cls-124,.cls-125,.cls-126,.cls-127,.cls-128,.cls-129,.cls-130,.cls-131,.cls-132,.cls-15,.cls-17,.cls-18,.cls-19,.cls-20,.cls-21,.cls-22,.cls-23,.cls-24,.cls-25,.cls-26,.cls-27,.cls-28,.cls-29,.cls-30,.cls-31,.cls-32,.cls-33,.cls-34,.cls-35,.cls-36,.cls-37,.cls-38,.cls-39,.cls-40,.cls-41,.cls-42,.cls-43,.cls-44,.cls-45,.cls-46,.cls-47,.cls-48,.cls-49,.cls-50,.cls-51,.cls-52,.cls-53,.cls-54,.cls-55,.cls-56,.cls-57,.cls-58,.cls-59,.cls-60,.cls-61,.cls-62,.cls-63,.cls-64,.cls-65,.cls-66,.cls-67,.cls-68,.cls-69,.cls-70,.cls-71,.cls-72,.cls-73,.cls-74,.cls-75,.cls-76,.cls-77,.cls-78,.cls-79,.cls-80,.cls-81,.cls-82,.cls-83,.cls-84,.cls-85,.cls-86,.cls-87,.cls-88,.cls-89,.cls-90,.cls-91,.cls-92,.cls-93,.cls-94,.cls-95,.cls-96,.cls-97,.cls-98,.cls-99{fill-rule:evenodd;}.cls-16{clip-path:url(#clip-path);}.cls-17{fill:#0668a1;}.cls-18{fill:#0768a2;}.cls-19{fill:#0968a2;}.cls-20{fill:#096aa2;}.cls-21{fill:#0b69a3;}.cls-22{fill:#096ba3;}.cls-23{fill:#0a6ba3;}.cls-24{fill:#0a6ca4;}.cls-25{fill:#0b6ba4;}.cls-26{fill:#0a6da5;}.cls-27{fill:#0c6ea5;}.cls-28{fill:#0b6ea6;}.cls-29{fill:#0e6fa6;}.cls-30{fill:#0f6fa7;}.cls-31{fill:#0f70a7;}.cls-32{fill:#1070a7;}.cls-33{fill:#1070a8;}.cls-34{fill:#1170a8;}.cls-35{fill:#1272a9;}.cls-36{fill:#1372a9;}.cls-37{fill:#1672a8;}.cls-38{fill:#1573aa;}.cls-39{fill:#1673aa;}.cls-40{fill:#1773a9;}.cls-41{fill:#1773aa;}.cls-42{fill:#1774aa;}.cls-43{fill:#1874aa;}.cls-44{fill:#1875ab;}.cls-45{fill:#1975ab;}.cls-46{fill:#1b76ac;}.cls-47{fill:#1d77ac;}.cls-48{fill:#1c77ae;}.cls-49{fill:#1e78ad;}.cls-50{fill:#1f79ae;}.cls-51{fill:#2079ae;}.cls-52{fill:#217aaf;}.cls-53{fill:#227aaf;}.cls-54{fill:#227baf;}.cls-55{fill:#237bb0;}.cls-56{fill:#237cb0;}.cls-57{fill:#247db1;}.cls-58{fill:#257db1;}.cls-59{fill:#267eb2;}.cls-60{fill:#277eb2;}.cls-61{fill:#277fb2;}.cls-62{fill:#277fb3;}.cls-63{fill:#2780b3;}.cls-64{fill:#2880b3;}.cls-65{fill:#2880b4;}.cls-66{fill:#2981b4;}.cls-67{fill:#2982b5;}.cls-68{fill:#2b83b5;}.cls-69{fill:#2b83b6;}.cls-70{fill:#2c84b6;}.cls-71{fill:#2c84b7;}.cls-72{fill:#2d84b7;}.cls-73{fill:#2c85b7;}.cls-74{fill:#2e85b8;}.cls-75{fill:#2f86b8;}.cls-76{fill:#3087b9;}.cls-77{fill:#3088b9;}.cls-78{fill:#3088ba;}.cls-79{fill:#3188ba;}.cls-80{fill:#3189ba;}.cls-81{fill:#3289bb;}.cls-82{fill:#328abb;}.cls-83{fill:#338abb;}.cls-84{fill:#338bbc;}.cls-85{fill:#348bbc;}.cls-86{fill:#358cbd;}.cls-87{fill:#358dbd;}.cls-88{fill:#358dbe;}.cls-89{fill:#368ebe;}.cls-90{fill:#378fbf;}.cls-91{fill:#388fbf;}.cls-92{fill:#3a90c0;}.cls-93{fill:#3a91c1;}.cls-94{fill:#3b92c1;}.cls-95{fill:#3d92c2;}.cls-96{fill:#3c93c2;}.cls-97{fill:#3e93c2;}.cls-98{fill:#3d94c3;}.cls-99{fill:#3e94c3;}.cls-100{fill:#3e95c4;}.cls-101{fill:#3f95c5;}.cls-102{fill:#3e96c5;}.cls-103{fill:#3f96c6;}.cls-104{fill:#4097c6;}.cls-105{fill:#4197c7;}.cls-106{fill:#4298c7;}.cls-107{fill:#4299c8;}.cls-108{fill:#439ac8;}.cls-109{fill:#449ac8;}.cls-110{fill:#459bc9;}.cls-111{fill:#469cc9;}.cls-112{fill:#479dca;}.cls-113{fill:#489dca;}.cls-114{fill:#489ecb;}.cls-115{fill:#499ecb;}.cls-116{fill:#499fcb;}.cls-117{fill:#4b9fcc;}.cls-118{fill:#4aa0cc;}.cls-119{fill:#4ba0cc;}.cls-120{fill:#4ba1cd;}.cls-121{fill:#4ca1cd;}.cls-122{fill:#4da2ce;}.cls-123{fill:#4ea3ce;}.cls-124{fill:#4ea3cf;}.cls-125{fill:#50a4cf;}.cls-126{fill:#50a4d0;}.cls-127{fill:#51a5d0;}.cls-128{fill:#53a6d1;}.cls-129{fill:#54a7d0;}.cls-130{fill:#54a7d2;}.cls-131{fill:#6d6d70;}</style><clipPath id="clip-path" transform="translate(-42.24 -145.44)"><path class="cls-1" d="M59.57,177.07c1.49-1.2,3.64-2.87,4.95-4a24.13,24.13,0,0,0,3.9-3.86c2.83-3.68,3.32-8.19,3.32-12.7v-4.33l-15.95,3.89,3.78.22Z"/></clipPath></defs><text class="cls-2" transform="translate(18.84 49.6) scale(0.99 1)">A<tspan class="cls-3" x="7.47" y="0">ll </tspan><tspan class="cls-4" x="17.8" y="0">T</tspan><tspan class="cls-3" x="24.41" y="0">il</tspan><tspan class="cls-5" x="31.3" y="0">e</tspan><tspan class="cls-3" x="37.61" y="0"> </tspan><tspan class="cls-6" x="41.06" y="0">&amp;</tspan><tspan class="cls-3" x="49.39" y="0"> </tspan><tspan class="cls-7" x="52.83" y="0">S</tspan><tspan class="cls-8" x="59.73" y="0">t</tspan><tspan class="cls-9" x="64.04" y="0">o</tspan><tspan class="cls-10" x="70.64" y="0">n</tspan><tspan class="cls-5" x="77.54" y="0">e</tspan><tspan class="cls-3" x="83.85" y="0"> </tspan><tspan class="cls-7" x="87.3" y="0">S</tspan><tspan class="cls-9" x="94.19" y="0">o</tspan><tspan class="cls-3" x="100.8" y="0">l</tspan><tspan class="cls-10" x="104.24" y="0">u</tspan><tspan class="cls-11" x="111.14" y="0">t</tspan><tspan class="cls-3" x="115.45" y="0">i</tspan><tspan class="cls-9" x="118.89" y="0">o</tspan><tspan class="cls-10" x="125.5" y="0">n</tspan><tspan class="cls-12" x="132.39" y="0">s</tspan><tspan class="cls-13" x="138.13" y="0"> </tspan></text><path class="cls-14" d="M87.32,175.62V154h-7v-3.37h21.23V154h-7v21.62Zm15.24,0a3.87,3.87,0,0,1-2.84-.84,4.19,4.19,0,0,1-.83-2.95v-9a4.19,4.19,0,0,1,.83-3,3.87,3.87,0,0,1,2.84-.85h8v2.49h-4.28a2,2,0,0,0-1.43.38,2.18,2.18,0,0,0-.36,1.47v2.71H110v2.49h-5.42v2.76a1.44,1.44,0,0,0,1.79,1.8h4.55v2.48Zm11.52,0V159h7.55a9.19,9.19,0,0,1,5.31,1.27,4.17,4.17,0,0,1,1.81,3.66,4.31,4.31,0,0,1-.8,2.72,4.38,4.38,0,0,1-2.43,1.48l5.08,7.45H124l-3.94-7.81v-.3a4,4,0,0,0,2.38-1,3.07,3.07,0,0,0,.74-2.21,2.9,2.9,0,0,0-.79-2.21,3.34,3.34,0,0,0-2.36-.75h-.38l-.25,0v14.24Zm17.68,0,4.52-13.51a6.75,6.75,0,0,1,1.51-2.81,3.24,3.24,0,0,1,2.29-.78,3.06,3.06,0,0,1,2.11.69,6.18,6.18,0,0,1,1.4,2.65l4.67,13.76h-5.92l-1-3h-5.76l-.92,3Zm4.6-5.32h4.31l-2.06-7.19Z" transform="translate(-42.24 -145.44)"/><path class="cls-14" d="M161.39,175.62l-4.64-8L162,159h3.43l-3.72,6.32,5.94,10.26Zm-10.55,0V148.86h5.63v26.76Zm19,0V159h7.55a9.23,9.23,0,0,1,5.31,1.27,4.2,4.2,0,0,1,1.81,3.66,4.31,4.31,0,0,1-.8,2.72,4.38,4.38,0,0,1-2.43,1.48l5.08,7.45h-6.61l-3.92-7.81v-.3a4,4,0,0,0,2.37-1,3,3,0,0,0,.75-2.21,2.87,2.87,0,0,0-.8-2.21,3.32,3.32,0,0,0-2.35-.75h-.38l-.25,0v14.24Zm21.57,0a3.85,3.85,0,0,1-2.83-.84,4.19,4.19,0,0,1-.84-2.95v-9a4.19,4.19,0,0,1,.84-3,3.85,3.85,0,0,1,2.83-.85h8v2.49H195.2a2,2,0,0,0-1.43.38,2.17,2.17,0,0,0-.37,1.47v2.71h5.42v2.49H193.4v2.76a2.1,2.1,0,0,0,.36,1.44,2.07,2.07,0,0,0,1.44.36h4.55v2.48Zm14.77,0V161.88h-4.64V159h14.92v2.84h-4.64v13.74Z" transform="translate(-42.24 -145.44)"/><path class="cls-15" d="M72.27,152.08v4.47c0,12.91-4.82,14.61-12.7,21.26V156.33l-3.78-.22Z" transform="translate(-42.24 -145.44)"/><g class="cls-16"><polygon class="cls-15" points="19.41 0.72 27.88 5.81 13.88 29.57 5.41 24.47 19.41 0.72"/><polygon class="cls-17" points="27.86 5.79 27.94 5.83 13.93 29.59 13.86 29.54 27.86 5.79"/><polygon class="cls-18" points="27.91 5.82 27.99 5.87 13.98 29.62 13.9 29.58 27.91 5.82"/><polygon class="cls-19" points="27.96 5.85 28.03 5.89 14.03 29.65 13.95 29.6 27.96 5.85"/><polygon class="cls-20" points="28.01 5.88 28.08 5.93 14.07 29.68 14.01 29.63 28.01 5.88"/><polygon class="cls-21" points="28.06 5.92 28.14 5.95 14.12 29.7 14.05 29.67 28.06 5.92"/><polygon class="cls-22" points="28.11 5.94 28.18 5.99 14.18 29.74 14.1 29.69 28.11 5.94"/><polygon class="cls-23" points="28.16 5.97 28.23 6.02 14.22 29.77 14.15 29.73 28.16 5.97"/><polygon class="cls-24" points="28.2 6 28.29 6.04 14.27 29.8 14.2 29.75 28.2 6"/><polygon class="cls-25" points="28.25 6.03 28.33 6.08 14.33 29.83 14.25 29.79 28.25 6.03"/><polygon class="cls-25" points="28.31 6.05 28.38 6.1 14.37 29.85 14.29 29.81 28.31 6.05"/><polygon class="cls-26" points="28.35 6.09 28.42 6.13 14.42 29.89 14.35 29.84 28.35 6.09"/><polygon class="cls-26" points="28.4 6.11 28.48 6.16 14.46 29.91 14.39 29.87 28.4 6.11"/><polygon class="cls-27" points="28.46 6.15 28.53 6.19 14.52 29.95 14.44 29.9 28.46 6.15"/><polygon class="cls-28" points="28.5 6.18 28.57 6.22 14.57 29.97 14.5 29.93 28.5 6.18"/><polygon class="cls-29" points="28.55 6.21 28.63 6.25 14.61 30 14.54 29.96 28.55 6.21"/><polygon class="cls-29" points="28.59 6.24 28.68 6.27 14.67 30.03 14.59 29.99 28.59 6.24"/><polygon class="cls-30" points="28.65 6.26 28.72 6.31 14.72 30.06 14.64 30.02 28.65 6.26"/><polygon class="cls-31" points="28.7 6.3 28.77 6.34 14.76 30.1 14.69 30.05 28.7 6.3"/><polygon class="cls-32" points="28.74 6.32 28.82 6.37 14.81 30.12 14.74 30.07 28.74 6.32"/><polygon class="cls-33" points="28.8 6.36 28.87 6.4 14.87 30.16 14.78 30.11 28.8 6.36"/><polygon class="cls-34" points="28.85 6.38 28.92 6.42 14.91 30.18 14.84 30.13 28.85 6.38"/><polygon class="cls-35" points="28.89 6.41 28.97 6.46 14.96 30.21 14.89 30.17 28.89 6.41"/><polygon class="cls-36" points="28.94 6.45 29.02 6.48 15.01 30.24 14.93 30.2 28.94 6.45"/><polygon class="cls-37" points="29 6.47 29.07 6.52 15.06 30.27 14.98 30.22 29 6.47"/><polygon class="cls-38" points="29.04 6.5 29.11 6.54 15.11 30.29 15.04 30.26 29.04 6.5"/><polygon class="cls-39" points="29.09 6.53 29.17 6.58 15.15 30.33 15.08 30.28 29.09 6.53"/><polygon class="cls-40" points="29.14 6.56 29.21 6.61 15.21 30.36 15.13 30.32 29.14 6.56"/><polygon class="cls-41" points="29.19 6.59 29.26 6.63 15.25 30.39 15.19 30.34 29.19 6.59"/><polygon class="cls-42" points="29.24 6.62 29.32 6.67 15.3 30.42 15.23 30.38 29.24 6.62"/><polygon class="cls-43" points="29.28 6.64 29.36 6.69 15.36 30.44 15.28 30.4 29.28 6.64"/><polygon class="cls-44" points="29.34 6.68 29.41 6.72 15.4 30.48 15.32 30.43 29.34 6.68"/><polygon class="cls-45" points="29.39 6.7 29.45 6.75 15.45 30.5 15.38 30.47 29.39 6.7"/><polygon class="cls-45" points="29.43 6.74 29.51 6.78 15.49 30.54 15.43 30.49 29.43 6.74"/><polygon class="cls-46" points="29.49 6.77 29.56 6.81 15.55 30.56 15.47 30.52 29.49 6.77"/><polygon class="cls-46" points="29.54 6.79 29.6 6.84 15.6 30.59 15.53 30.55 29.54 6.79"/><polygon class="cls-47" points="29.58 6.83 29.66 6.88 15.64 30.63 15.57 30.58 29.58 6.83"/><polygon class="cls-48" points="29.64 6.85 29.71 6.9 15.7 30.65 15.62 30.61 29.64 6.85"/><polygon class="cls-49" points="29.68 6.89 29.75 6.93 15.75 30.69 15.67 30.64 29.68 6.89"/><polygon class="cls-49" points="29.73 6.91 29.81 6.96 15.79 30.71 15.72 30.66 29.73 6.91"/><polygon class="cls-50" points="29.77 6.95 29.86 6.99 15.84 30.75 15.77 30.7 29.77 6.95"/><polygon class="cls-50" points="29.83 6.97 29.9 7.01 15.9 30.77 15.82 30.72 29.83 6.97"/><polygon class="cls-51" points="29.88 7 29.95 7.05 15.94 30.8 15.87 30.76 29.88 7"/><polygon class="cls-52" points="29.92 7.04 30 7.07 15.99 30.83 15.92 30.79 29.92 7.04"/><polygon class="cls-53" points="29.98 7.06 30.05 7.11 16.05 30.86 15.96 30.81 29.98 7.06"/><polygon class="cls-54" points="30.03 7.09 30.1 7.14 16.09 30.89 16.01 30.85 30.03 7.09"/><polygon class="cls-55" points="30.07 7.12 30.15 7.17 16.14 30.92 16.07 30.87 30.07 7.12"/><polygon class="cls-56" points="30.12 7.15 30.2 7.2 16.18 30.95 16.11 30.91 30.12 7.15"/><polygon class="cls-56" points="30.18 7.18 30.25 7.22 16.24 30.98 16.16 30.93 30.18 7.18"/><polygon class="cls-57" points="30.22 7.21 30.29 7.26 16.29 31.01 16.22 30.96 30.22 7.21"/><polygon class="cls-57" points="30.27 7.23 30.35 7.28 16.33 31.03 16.26 30.99 30.27 7.23"/><polygon class="cls-58" points="30.32 7.27 30.39 7.32 16.39 31.07 16.31 31.02 30.32 7.27"/><polygon class="cls-59" points="30.37 7.3 30.44 7.34 16.43 31.09 16.36 31.06 30.37 7.3"/><polygon class="cls-60" points="30.42 7.33 30.5 7.37 16.48 31.13 16.41 31.08 30.42 7.33"/><polygon class="cls-61" points="30.46 7.36 30.54 7.4 16.54 31.15 16.46 31.11 30.46 7.36"/><polygon class="cls-62" points="30.52 7.38 30.59 7.43 16.58 31.18 16.5 31.14 30.52 7.38"/><polygon class="cls-63" points="30.57 7.42 30.64 7.47 16.63 31.22 16.56 31.17 30.57 7.42"/><polygon class="cls-64" points="30.61 7.44 30.69 7.49 16.68 31.24 16.61 31.2 30.61 7.44"/><polygon class="cls-65" points="30.67 7.48 30.74 7.52 16.73 31.28 16.65 31.23 30.67 7.48"/><polygon class="cls-66" points="30.71 7.5 30.78 7.55 16.78 31.3 16.71 31.25 30.71 7.5"/><polygon class="cls-66" points="30.76 7.54 30.84 7.58 16.82 31.34 16.76 31.29 30.76 7.54"/><polygon class="cls-67" points="30.81 7.57 30.89 7.6 16.88 31.36 16.8 31.32 30.81 7.57"/><polygon class="cls-67" points="30.86 7.59 30.93 7.64 16.93 31.39 16.85 31.35 30.86 7.59"/><polygon class="cls-68" points="30.91 7.63 30.98 7.66 16.97 31.42 16.91 31.38 30.91 7.63"/><polygon class="cls-69" points="30.96 7.65 31.04 7.7 17.02 31.45 16.95 31.4 30.96 7.65"/><polygon class="cls-70" points="31.01 7.68 31.08 7.73 17.08 31.48 17 31.44 31.01 7.68"/><polygon class="cls-71" points="31.06 7.71 31.13 7.75 17.12 31.51 17.05 31.46 31.06 7.71"/><polygon class="cls-72" points="31.11 7.74 31.18 7.79 17.17 31.54 17.1 31.5 31.11 7.74"/><polygon class="cls-73" points="31.15 7.77 31.23 7.81 17.23 31.57 17.14 31.52 31.15 7.77"/><polygon class="cls-74" points="31.21 7.8 31.28 7.85 17.27 31.6 17.19 31.55 31.21 7.8"/><polygon class="cls-75" points="31.25 7.82 31.32 7.87 17.32 31.62 17.25 31.58 31.25 7.82"/><polygon class="cls-75" points="31.3 7.86 31.38 7.91 17.36 31.66 17.29 31.61 31.3 7.86"/><polygon class="cls-76" points="31.36 7.89 31.43 7.93 17.42 31.68 17.34 31.65 31.36 7.89"/><polygon class="cls-76" points="31.4 7.92 31.47 7.96 17.47 31.72 17.4 31.67 31.4 7.92"/><polygon class="cls-77" points="31.45 7.95 31.53 8 17.51 31.75 17.44 31.7 31.45 7.95"/><polygon class="cls-78" points="31.49 7.97 31.57 8.02 17.57 31.77 17.49 31.73 31.49 7.97"/><polygon class="cls-79" points="31.55 8.01 31.62 8.06 17.61 31.81 17.54 31.76 31.55 8.01"/><polygon class="cls-80" points="31.6 8.03 31.67 8.08 17.66 31.83 17.59 31.79 31.6 8.03"/><polygon class="cls-81" points="31.64 8.07 31.72 8.11 17.71 31.87 17.64 31.82 31.64 8.07"/><polygon class="cls-82" points="31.7 8.09 31.77 8.14 17.76 31.89 17.68 31.84 31.7 8.09"/><polygon class="cls-83" points="31.75 8.13 31.82 8.17 17.81 31.93 17.74 31.88 31.75 8.13"/><polygon class="cls-84" points="31.79 8.16 31.87 8.2 17.86 31.95 17.79 31.91 31.79 8.16"/><polygon class="cls-85" points="31.84 8.18 31.92 8.23 17.91 31.98 17.83 31.94 31.84 8.18"/><polygon class="cls-85" points="31.9 8.22 31.96 8.26 17.96 32.02 17.88 31.97 31.9 8.22"/><polygon class="cls-86" points="31.94 8.24 32.01 8.29 18 32.04 17.94 31.99 31.94 8.24"/><polygon class="cls-86" points="31.99 8.28 32.07 8.32 18.05 32.08 17.98 32.03 31.99 8.28"/><polygon class="cls-87" points="32.05 8.3 32.11 8.35 18.11 32.1 18.03 32.05 32.05 8.3"/><polygon class="cls-88" points="32.09 8.33 32.16 8.38 18.15 32.13 18.09 32.09 32.09 8.33"/><polygon class="cls-89" points="32.14 8.36 32.22 8.4 18.2 32.16 18.13 32.11 32.14 8.36"/><polygon class="cls-89" points="32.18 8.39 32.26 8.44 18.26 32.19 18.18 32.15 32.18 8.39"/><polygon class="cls-90" points="32.24 8.43 32.31 8.46 18.3 32.21 18.22 32.18 32.24 8.43"/><polygon class="cls-90" points="32.28 8.45 32.35 8.49 18.35 32.25 18.28 32.2 32.28 8.45"/><polygon class="cls-91" points="32.33 8.48 32.41 8.52 18.39 32.27 18.33 32.24 32.33 8.48"/><polygon class="cls-92" points="32.39 8.51 32.46 8.55 18.45 32.31 18.37 32.26 32.39 8.51"/><polygon class="cls-92" points="32.43 8.54 32.5 8.59 18.5 32.34 18.43 32.3 32.43 8.54"/><polygon class="cls-93" points="32.48 8.56 32.56 8.61 18.54 32.37 18.48 32.32 32.48 8.56"/><polygon class="cls-93" points="32.53 8.6 32.61 8.65 18.6 32.4 18.52 32.35 32.53 8.6"/><polygon class="cls-94" points="32.58 8.62 32.65 8.67 18.65 32.42 18.57 32.38 32.58 8.62"/><polygon class="cls-94" points="32.63 8.66 32.7 8.7 18.69 32.46 18.62 32.41 32.63 8.66"/><polygon class="cls-95" points="32.67 8.69 32.76 8.73 18.74 32.48 18.67 32.45 32.67 8.69"/><polygon class="cls-96" points="32.73 8.71 32.8 8.76 18.8 32.52 18.72 32.47 32.73 8.71"/><polygon class="cls-97" points="32.78 8.75 32.85 8.79 18.84 32.54 18.77 32.5 32.78 8.75"/><polygon class="cls-98" points="32.82 8.77 32.9 8.82 18.89 32.57 18.82 32.53 32.82 8.77"/><polygon class="cls-99" points="32.87 8.81 32.95 8.85 18.95 32.61 18.86 32.56 32.87 8.81"/><polygon class="cls-100" points="32.93 8.83 33 8.88 18.99 32.63 18.91 32.59 32.93 8.83"/><polygon class="cls-101" points="32.97 8.87 33.04 8.91 19.04 32.67 18.97 32.62 32.97 8.87"/><polygon class="cls-102" points="33.02 8.89 33.1 8.94 19.08 32.69 19.01 32.64 33.02 8.89"/><polygon class="cls-103" points="33.08 8.92 33.15 8.97 19.14 32.72 19.06 32.68 33.08 8.92"/><polygon class="cls-103" points="33.12 8.95 33.19 8.99 19.18 32.75 19.12 32.7 33.12 8.95"/><polygon class="cls-104" points="33.17 8.98 33.25 9.03 19.23 32.78 19.16 32.73 33.17 8.98"/><polygon class="cls-105" points="33.21 9.02 33.29 9.05 19.29 32.8 19.21 32.77 33.21 9.02"/><polygon class="cls-106" points="33.27 9.04 33.34 9.09 19.33 32.84 19.25 32.79 33.27 9.04"/><polygon class="cls-106" points="33.32 9.07 33.38 9.12 19.38 32.87 19.31 32.83 33.32 9.07"/><polygon class="cls-107" points="33.36 9.1 33.44 9.14 19.43 32.9 19.36 32.85 33.36 9.1"/><polygon class="cls-107" points="33.42 9.13 33.49 9.18 19.48 32.93 19.4 32.88 33.42 9.13"/><polygon class="cls-108" points="33.47 9.15 33.53 9.2 19.53 32.95 19.46 32.91 33.47 9.15"/><polygon class="cls-109" points="33.51 9.19 33.59 9.24 19.57 32.99 19.51 32.94 33.51 9.19"/><polygon class="cls-109" points="33.56 9.21 33.64 9.26 19.63 33.01 19.55 32.97 33.56 9.21"/><polygon class="cls-110" points="33.62 9.25 33.68 9.29 19.68 33.05 19.6 33 33.62 9.25"/><polygon class="cls-110" points="33.66 9.28 33.73 9.32 19.72 33.07 19.66 33.04 33.66 9.28"/><polygon class="cls-111" points="33.71 9.3 33.79 9.35 19.77 33.1 19.7 33.06 33.71 9.3"/><polygon class="cls-111" points="33.76 9.34 33.83 9.38 19.83 33.14 19.75 33.09 33.76 9.34"/><polygon class="cls-112" points="33.81 9.36 33.88 9.41 19.87 33.16 19.8 33.12 33.81 9.36"/><polygon class="cls-112" points="33.85 9.4 33.94 9.44 19.92 33.2 19.85 33.15 33.85 9.4"/><polygon class="cls-113" points="33.9 9.42 33.98 9.47 19.98 33.22 19.9 33.17 33.9 9.42"/><polygon class="cls-114" points="33.96 9.46 34.03 9.5 20.02 33.26 19.94 33.21 33.96 9.46"/><polygon class="cls-115" points="34 9.48 34.07 9.53 20.07 33.28 20 33.23 34 9.48"/><polygon class="cls-116" points="34.05 9.51 34.13 9.56 20.11 33.31 20.05 33.27 34.05 9.51"/><polygon class="cls-117" points="34.11 9.55 34.18 9.58 20.17 33.34 20.09 33.3 34.11 9.55"/><polygon class="cls-118" points="34.15 9.57 34.22 9.62 20.22 33.37 20.15 33.33 34.15 9.57"/><polygon class="cls-119" points="34.2 9.61 34.28 9.64 20.26 33.39 20.19 33.36 34.2 9.61"/><polygon class="cls-120" points="34.24 9.63 34.33 9.68 20.32 33.43 20.24 33.38 34.24 9.63"/><polygon class="cls-121" points="34.3 9.66 34.37 9.71 20.37 33.46 20.29 33.42 34.3 9.66"/><polygon class="cls-121" points="34.35 9.69 34.42 9.73 20.41 33.49 20.34 33.44 34.35 9.69"/><polygon class="cls-122" points="34.39 9.72 34.47 9.77 20.46 33.52 20.39 33.48 34.39 9.72"/><polygon class="cls-122" points="34.45 9.74 34.52 9.79 20.52 33.55 20.43 33.5 34.45 9.74"/><polygon class="cls-123" points="34.5 9.78 34.57 9.83 20.56 33.58 20.49 33.53 34.5 9.78"/><polygon class="cls-124" points="34.54 9.81 34.62 9.85 20.61 33.6 20.54 33.57 34.54 9.81"/><polygon class="cls-125" points="34.6 9.84 34.67 9.88 20.66 33.64 20.58 33.59 34.6 9.84"/><polygon class="cls-125" points="34.65 9.87 34.72 9.91 20.71 33.66 20.63 33.63 34.65 9.87"/><polygon class="cls-126" points="34.69 9.89 34.77 9.94 20.76 33.7 20.69 33.65 34.69 9.89"/><polygon class="cls-127" points="34.74 9.93 34.82 9.98 20.8 33.73 20.73 33.68 34.74 9.93"/><polygon class="cls-127" points="34.8 9.95 34.86 10 20.86 33.75 20.78 33.71 34.8 9.95"/><polygon class="cls-128" points="34.84 9.99 34.91 10.03 20.91 33.79 20.84 33.74 34.84 9.99"/><polygon class="cls-128" points="34.89 10.01 34.97 10.06 20.95 33.81 20.88 33.77 34.89 10.01"/><polygon class="cls-129" points="34.94 10.05 35.01 10.09 21.01 33.85 20.93 33.8 34.94 10.05"/><polygon class="cls-130" points="34.99 10.07 34.96 10.06 20.94 33.81 20.97 33.82 34.99 10.07"/></g><path class="cls-131" d="M42.24,148.06a44.26,44.26,0,0,1,30,0v2.65l-28.1,1.4,1.84,6.3,6.57-1.7,6.06,21.91c-.45.39-.91.8-1.38,1.24-9.24-8.48-15-9.18-15-23.31Z" transform="translate(-42.24 -145.44)"/><path class="cls-132" d="M42.77,148.43v8.12c0,4.51.49,9,3.32,12.7a28.37,28.37,0,0,0,4.82,4.6c1.89,1.53,4.72,3.82,6.78,5.62l1-.85-6.06-21.91L46,158.41l-1.84-6.3,27.57-1.36v-2.3a43.62,43.62,0,0,0-29,0Z" transform="translate(-42.24 -145.44)"/><path class="cls-133" d="M161.69,151.14h.07a.67.67,0,0,0,.49-.14.54.54,0,0,0,.16-.44.47.47,0,0,0-.16-.39.65.65,0,0,0-.45-.14h-.11Zm0,2.13h.09a.83.83,0,0,0,.54-.16.65.65,0,0,0,.18-.51.56.56,0,0,0-.17-.46.89.89,0,0,0-.56-.14h-.08Zm-1.15.87v-4.92h1.23a4.71,4.71,0,0,1,.8.05,1.46,1.46,0,0,1,.43.15,1,1,0,0,1,.38.41,1.3,1.3,0,0,1,.14.63,1.32,1.32,0,0,1-.12.57,1.57,1.57,0,0,1-.4.48,1.42,1.42,0,0,1,.49.45,1.49,1.49,0,0,1,.16.69,1.63,1.63,0,0,1-.12.62,1.12,1.12,0,0,1-.31.5,1,1,0,0,1-.45.29,3.15,3.15,0,0,1-.86.08Zm5.77-2v-.9a2.71,2.71,0,0,0-.11-1,.43.43,0,0,0-.73,0,2.77,2.77,0,0,0-.1,1v.9a2.88,2.88,0,0,0,.1,1,.37.37,0,0,0,.37.2.36.36,0,0,0,.36-.2,2.67,2.67,0,0,0,.11-1Zm-2.1-.44a10,10,0,0,1,.06-1.3,1.85,1.85,0,0,1,.2-.65,1.45,1.45,0,0,1,.55-.47,1.91,1.91,0,0,1,.82-.16,1.83,1.83,0,0,1,.81.16,1.29,1.29,0,0,1,.54.47,1.82,1.82,0,0,1,.22.65,10.54,10.54,0,0,1,.05,1.3,10.27,10.27,0,0,1-.05,1.28,1.76,1.76,0,0,1-.22.65,1.38,1.38,0,0,1-.54.48,1.83,1.83,0,0,1-.81.15,1.91,1.91,0,0,1-.82-.15,1.57,1.57,0,0,1-.55-.48,1.79,1.79,0,0,1-.2-.64,9.91,9.91,0,0,1-.06-1.29Zm3.95,2.45v-4.92h1.2l.94,3c0-.51-.06-.95-.08-1.32s0-.68,0-.93v-.78h1v4.92H170l-1-3.13c0,.41.08.8.1,1.19s0,.75,0,1.11v.83Zm5-4v3.11h.16a.69.69,0,0,0,.31-.05.38.38,0,0,0,.19-.16.63.63,0,0,0,.08-.35,7.37,7.37,0,0,0,0-1v-.22c0-.41,0-.69,0-.84a.64.64,0,0,0-.1-.29.34.34,0,0,0-.19-.16,1,1,0,0,0-.32,0h-.15Zm-1.15,4v-4.92h1.25a3.15,3.15,0,0,1,1,.13,1,1,0,0,1,.54.4,1.7,1.7,0,0,1,.21.59,13,13,0,0,1,0,2.69,1.71,1.71,0,0,1-.21.58,1.11,1.11,0,0,1-.54.41,3.2,3.2,0,0,1-1,.12Zm3.77,0v-4.92h1.15v4.92Zm1.94,0v-4.92h1.18l1,3q-.06-.76-.09-1.32c0-.37,0-.68,0-.93v-.78h1v4.92h-1.19l-1-3.13c0,.41.07.8.1,1.19s0,.75,0,1.11v.83Zm6.82-2.7v2.7h-.78l-.06-.3a1.1,1.1,0,0,1-.37.29,1,1,0,0,1-.47.1,1.42,1.42,0,0,1-.55-.11,1.28,1.28,0,0,1-.44-.33,1.48,1.48,0,0,1-.32-.69,7.49,7.49,0,0,1-.09-1.48c0-.5,0-.89.05-1.2a2,2,0,0,1,.21-.67,1.24,1.24,0,0,1,.54-.48,1.77,1.77,0,0,1,.79-.16,1.4,1.4,0,0,1,1.09.39,1.72,1.72,0,0,1,.35,1.18v.17H183.4v0a1.75,1.75,0,0,0-.08-.61.33.33,0,0,0-.3-.18.35.35,0,0,0-.34.22,4.08,4.08,0,0,0-.09,1.05v.82a3.83,3.83,0,0,0,.09,1,.32.32,0,0,0,.31.22.38.38,0,0,0,.35-.19,1.32,1.32,0,0,0,.1-.61.62.62,0,0,0,0-.15v-.1H183v-.86Zm2.33,1h1v.15a1.16,1.16,0,0,0,.1.57.35.35,0,0,0,.32.16.31.31,0,0,0,.28-.13.48.48,0,0,0,.1-.33.86.86,0,0,0-.5-.69l-.13-.09-.06,0a3.4,3.4,0,0,1-.84-.71,1.48,1.48,0,0,1-.19-.4,1.81,1.81,0,0,1-.07-.49,1.32,1.32,0,0,1,.38-1,1.35,1.35,0,0,1,1-.37,1.46,1.46,0,0,1,1.08.35,1.41,1.41,0,0,1,.38,1v.08a.15.15,0,0,0,0,.08h-1v-.06a1,1,0,0,0-.09-.49.34.34,0,0,0-.55-.05.45.45,0,0,0-.1.31c0,.21.18.43.56.66l.15.1a.49.49,0,0,0,.13.08,2.68,2.68,0,0,1,.76.65,1.61,1.61,0,0,1,.16.38,1.82,1.82,0,0,1,0,.48,1.59,1.59,0,0,1-.38,1.13,1.37,1.37,0,0,1-1.07.39,1.46,1.46,0,0,1-1.12-.38,1.52,1.52,0,0,1-.37-1.13v-.09s0-.1,0-.18Zm5.56-.34v-.9a2.71,2.71,0,0,0-.11-1,.39.39,0,0,0-.38-.2.37.37,0,0,0-.36.21,3.15,3.15,0,0,0-.09,1v.9a3.28,3.28,0,0,0,.09,1,.39.39,0,0,0,.38.2.38.38,0,0,0,.36-.2,2.67,2.67,0,0,0,.11-1Zm-2.11-.44a8.15,8.15,0,0,1,.07-1.3,1.85,1.85,0,0,1,.2-.65,1.25,1.25,0,0,1,.55-.47,2.16,2.16,0,0,1,1.63,0,1.29,1.29,0,0,1,.54.47,1.82,1.82,0,0,1,.22.65c0,.28,0,.71,0,1.3a12.73,12.73,0,0,1,0,1.28,1.76,1.76,0,0,1-.22.65,1.38,1.38,0,0,1-.54.48,1.89,1.89,0,0,1-.81.15,1.85,1.85,0,0,1-.82-.15,1.35,1.35,0,0,1-.55-.48,1.79,1.79,0,0,1-.2-.64,8.09,8.09,0,0,1-.07-1.29Zm6.47,2.45h-2.51v-4.92h1.14v3.92h1.37Zm.27-4.92h1.15v3.08a2.42,2.42,0,0,0,.09.87.37.37,0,0,0,.62,0,2.59,2.59,0,0,0,.08-.87v-3.08h1.13v3.14a5.35,5.35,0,0,1,0,.8,1.46,1.46,0,0,1-.16.46,1,1,0,0,1-.5.48,1.93,1.93,0,0,1-.85.15,2,2,0,0,1-.8-.13,1.14,1.14,0,0,1-.48-.47,1.46,1.46,0,0,1-.19-.59,10.21,10.21,0,0,1,0-1.19Zm4.45,4.92v-4h-.9v-1h3v1h-1v4Zm2.57,0v-4.92h1.15v4.92Zm3.93-2v-.9a2.8,2.8,0,0,0-.1-1,.39.39,0,0,0-.37-.2.36.36,0,0,0-.36.21,2.68,2.68,0,0,0-.11,1v.9a2.79,2.79,0,0,0,.11,1,.37.37,0,0,0,.36.2.37.37,0,0,0,.37-.2,2.76,2.76,0,0,0,.1-1Zm-2.1-.44a9.57,9.57,0,0,1,.07-1.3,1.65,1.65,0,0,1,.21-.65,1.29,1.29,0,0,1,.54-.47,2.16,2.16,0,0,1,1.63,0,1.2,1.2,0,0,1,.53.47,1.5,1.5,0,0,1,.22.65,8.23,8.23,0,0,1,.07,1.3,8,8,0,0,1-.07,1.28,1.46,1.46,0,0,1-.22.65,1.29,1.29,0,0,1-.53.48,2.29,2.29,0,0,1-1.63,0,1.38,1.38,0,0,1-.54-.48A1.6,1.6,0,0,1,206,153a9.5,9.5,0,0,1-.07-1.29Zm4,2.45v-4.92h1.19l.95,3q-.06-.76-.09-1.32c0-.37,0-.68,0-.93v-.78h1v4.92h-1.18l-1-3.13c0,.41.07.8.1,1.19s0,.75,0,1.11v.83Zm3.69-1.67h1v.15a1.49,1.49,0,0,0,.09.57.38.38,0,0,0,.32.16.31.31,0,0,0,.29-.13.48.48,0,0,0,.1-.33.89.89,0,0,0-.5-.69l-.13-.09,0,0a3.42,3.42,0,0,1-.86-.71,1.21,1.21,0,0,1-.17-.4,1.49,1.49,0,0,1-.07-.49,1.35,1.35,0,0,1,.36-1,1.39,1.39,0,0,1,1-.37,1.5,1.5,0,0,1,1.08.35,1.41,1.41,0,0,1,.38,1s0,0,0,.08v.08h-1v-.06a.91.91,0,0,0-.11-.49A.31.31,0,0,0,215,150a.38.38,0,0,0-.27.12.57.57,0,0,0-.09.31c0,.21.19.43.55.66l.16.1a.49.49,0,0,0,.13.08,2.84,2.84,0,0,1,.76.65,2.17,2.17,0,0,1,.16.38,1.82,1.82,0,0,1,0,.48,1.55,1.55,0,0,1-.38,1.13,1.39,1.39,0,0,1-1.08.39,1.49,1.49,0,0,1-1.12-.38,1.56,1.56,0,0,1-.36-1.13v-.09s0-.1,0-.18Z" transform="translate(-42.24 -145.44)"/></svg>